<?xml version="1.0" encoding="utf-8"?>
<!-- Generator: Adobe Illustrator 24.1.1, SVG Export Plug-In . SVG Version: 6.00 Build 0)  -->
<svg version="1.1" xmlns="http://www.w3.org/2000/svg" xmlns:xlink="http://www.w3.org/1999/xlink" x="0px" y="0px"
	 viewBox="0 0 612 612" style="enable-background:new 0 0 612 612;" xml:space="preserve">
<style type="text/css">
	.st0{fill:#EAF4F4;}
	.st1{fill:#6794B5;}
	.st2{fill:#E9EFB4;}
	.st3{fill:none;stroke:#3F2810;stroke-width:10;stroke-miterlimit:10;}
	.st4{fill:#D1D1BF;}
	.st5{fill:none;stroke:#5B4631;stroke-width:7;stroke-miterlimit:10;}
	.st6{fill:none;stroke:#836644;stroke-width:20;stroke-miterlimit:10;}
	.st7{fill:#836644;}
	.st8{fill:#CC554C;}
	.st9{fill:#AD322F;}
	.st10{fill:none;stroke:#000000;stroke-width:4;stroke-miterlimit:10;}
</style>
<g id="Layer_1">
	<path class="st0" d="M554.01,567.42H54.83c-6.6,0-12-5.4-12-12V56.23c0-6.6,5.4-12,12-12h499.19c6.6,0,12,5.4,12,12v499.19
		C566.01,562.02,560.61,567.42,554.01,567.42z"/>
</g>
<g id="Layer_2">
	<rect x="164.83" y="129.74" class="st1" width="295.65" height="232.61"/>
	<polygon class="st2" points="455.94,180.96 453.92,180.69 452.55,182.21 452.18,180.21 450.32,179.38 452.11,178.4 452.32,176.38 
		453.8,177.78 455.79,177.35 454.92,179.19 	"/>
	<polygon class="st2" points="204.49,264.45 201.32,261.23 196.86,262.01 198.95,258 196.83,254 201.29,254.75 204.44,251.5 
		205.1,255.98 209.17,257.96 205.12,259.98 	"/>
	<polygon class="st2" points="184.62,148.49 182.86,145.96 179.78,145.96 181.65,143.51 180.68,140.58 183.6,141.6 186.09,139.78 
		186.02,142.86 188.52,144.67 185.56,145.56 	"/>
	<rect x="164.83" y="129.74" class="st3" width="295.65" height="232.61"/>
	<line class="st3" x1="164.83" y1="271.77" x2="460.48" y2="271.77"/>
	<circle class="st4" cx="243.75" cy="198.7" r="46.91"/>
	<circle class="st1" cx="265.96" cy="208.63" r="40.04"/>
</g>
<g id="Layer_3">
	<polygon class="st2" points="332.11,168.59 330.1,167.84 328.34,169.07 328.43,166.92 326.72,165.63 328.79,165.06 329.49,163.03 
		330.67,164.82 332.82,164.86 331.48,166.54 	"/>
	<polygon class="st2" points="374.32,205.21 374.88,203.55 373.83,202.14 375.59,202.16 376.61,200.73 377.13,202.4 378.81,202.93 
		377.37,203.94 377.39,205.7 375.98,204.65 	"/>
	<polygon class="st2" points="392.02,158.57 388.69,157.95 386.28,160.34 385.85,156.98 382.83,155.43 385.89,153.98 386.43,150.63 
		388.76,153.09 392.11,152.57 390.49,155.55 	"/>
	<polygon class="st2" points="293.47,236.7 291.65,235.83 289.91,236.84 290.17,234.84 288.68,233.49 290.66,233.13 291.48,231.29 
		292.44,233.06 294.44,233.27 293.05,234.73 	"/>
	<polygon class="st2" points="270.15,180.53 270.66,179.02 269.71,177.74 271.3,177.76 272.23,176.45 272.7,177.98 274.23,178.45 
		272.92,179.38 272.94,180.97 271.66,180.02 	"/>
	<polygon class="st2" points="421.64,249.38 417.15,246.93 412.59,249.24 413.53,244.22 409.93,240.59 415,239.94 417.33,235.39 
		419.52,240.01 424.57,240.82 420.85,244.33 	"/>
	<polygon class="st2" points="380.87,302.4 378,300.92 375.15,302.45 375.67,299.26 373.34,297.02 376.53,296.53 377.94,293.62 
		379.39,296.51 382.6,296.95 380.3,299.22 	"/>
	<polygon class="st2" points="263,330.66 259.98,327.61 255.76,328.37 257.73,324.56 255.7,320.78 259.94,321.47 262.91,318.37 
		263.56,322.61 267.42,324.48 263.58,326.41 	"/>
	<polygon class="st2" points="178.49,310.74 176.67,309.75 174.83,310.68 175.21,308.65 173.76,307.18 175.81,306.91 176.76,305.08 
		177.64,306.95 179.68,307.28 178.18,308.7 	"/>
	<polygon class="st2" points="337.81,257.98 336.9,257.17 335.72,257.45 336.21,256.34 335.58,255.3 336.79,255.43 337.58,254.5 
		337.83,255.69 338.96,256.16 337.9,256.77 	"/>
	<line class="st5" x1="117.46" y1="424.96" x2="507.85" y2="424.96"/>
	<line class="st6" x1="515.29" y1="310.9" x2="515.29" y2="455.83"/>
	<line class="st6" x1="110.22" y1="283.36" x2="110.22" y2="455.83"/>
	<line class="st6" x1="512.39" y1="413.07" x2="117.46" y2="413.07"/>
	<circle class="st7" cx="110.22" cy="277.76" r="15.3"/>
	<circle class="st7" cx="515.29" cy="310.9" r="15.3"/>
	<path class="st8" d="M497.64,403.26h-369.7c-4.31,0-7.83-3.52-7.83-7.83v-42.3c0-4.31,3.52-7.83,7.83-7.83h369.7
		c4.31,0,7.83,3.52,7.83,7.83v42.3C505.47,399.73,501.94,403.26,497.64,403.26z"/>
	<path class="st9" d="M493.3,403.26H245.47c-6.69,0-12.17-5.48-12.17-12.17v-51.32c0-6.69,5.48-12.17,12.17-12.17H493.3
		c6.69,0,12.17,5.48,12.17,12.17v51.32C505.47,397.78,499.99,403.26,493.3,403.26z"/>
	<path class="st9" d="M130.49,338.83c0,0,4.77,6.47,15.32,6.47s69.79,0,69.79,0s3.63-0.31,6.55-2.17s4.34-3.45,4.34-3.45
		s-4.3-4.09-9.74-6.04c-5.45-1.96-23.53-3.74-41.62-3.74s-31.7,2.81-31.7,2.81s-4.38,1.06-8.04,3.06S130.49,338.83,130.49,338.83z"
		/>
</g>
<g id="Layer_4">
	<polyline class="st10" points="79.94,182.42 92.66,169.51 97.02,194.91 109.9,181.85 	"/>
	<polyline class="st10" points="87.15,139.94 96.95,130 100.31,149.55 110.22,139.51 	"/>
	<polyline class="st10" points="107.09,107.39 115.9,98.46 118.92,116.04 127.84,107 	"/>
	<polyline class="st10" points="137.94,86.84 144.28,80.42 146.44,93.05 152.85,86.56 	"/>
</g>
</svg>
