<?xml version="1.0" encoding="utf-8"?>
<!-- Generator: Adobe Illustrator 24.1.1, SVG Export Plug-In . SVG Version: 6.00 Build 0)  -->
<svg version="1.1" xmlns="http://www.w3.org/2000/svg" xmlns:xlink="http://www.w3.org/1999/xlink" x="0px" y="0px"
	 viewBox="0 0 612 612" style="enable-background:new 0 0 612 612;" xml:space="preserve">
<style type="text/css">
	.st0{fill:#EAF4F4;}
	.st1{fill:#FFFFFF;stroke:#ACAEAF;stroke-miterlimit:10;}
	.st2{fill:#EAF4F4;stroke:#ACAEAF;stroke-miterlimit:10;}
	.st3{fill:#EAD015;}
	.st4{fill:#EFDD73;}
	.st5{fill:#FFF7D2;}
	.st6{fill:none;stroke:#ACAEAF;stroke-miterlimit:10;}
</style>
<g id="Layer_2">
	<path class="st0" d="M554.01,567.42H54.83c-6.6,0-12-5.4-12-12V56.23c0-6.6,5.4-12,12-12h499.19c6.6,0,12,5.4,12,12v499.19
		C566.01,562.02,560.61,567.42,554.01,567.42z"/>
</g>
<g id="Beer_Mug">
	<path class="st1" d="M464.49,450.71h-79.21c-10.08,0-18.33-8.25-18.33-18.33V224.83c0-10.08,8.25-18.33,18.33-18.33h79.21
		c10.08,0,18.33,8.25,18.33,18.33v207.54C482.82,442.46,474.57,450.71,464.49,450.71z"/>
	<path class="st2" d="M383.18,409.02V248.19c0-9.65,7.83-17.48,17.48-17.48h41.27c9.65,0,17.48,7.83,17.48,17.48v160.83
		c0,9.65-7.83,17.48-17.48,17.48h-41.27C391.01,426.5,383.18,418.67,383.18,409.02z"/>
	<path class="st1" d="M202.2,537.49c-20.78,0-37.69-16.91-37.69-37.69V169c0-20.78,16.91-37.69,37.69-37.69h157.61
		c20.78,0,37.69,16.91,37.69,37.69v330.8c0,20.78-16.91,37.69-37.69,37.69H202.2z"/>
	<path class="st3" d="M360.78,492.66H201.24c-12.32,0-22.41-10.08-22.41-22.41V168.04c0-12.32,10.08-22.41,22.41-22.41h159.54
		c12.32,0,22.41,10.08,22.41,22.41v302.22C383.18,482.58,373.1,492.66,360.78,492.66z"/>
	<path class="st4" d="M223.33,466.49H212.6c-7.21,0-13.11-5.9-13.11-13.11V177.59c0-7.21,5.9-13.11,13.11-13.11h10.73
		c7.21,0,13.11,5.9,13.11,13.11v275.79C236.44,460.59,230.54,466.49,223.33,466.49z"/>
	<path class="st4" d="M286.74,466.49h-10.73c-7.21,0-13.11-5.9-13.11-13.11V177.59c0-7.21,5.9-13.11,13.11-13.11h10.73
		c7.21,0,13.11,5.9,13.11,13.11v275.79C299.85,460.59,293.95,466.49,286.74,466.49z"/>
	<path class="st4" d="M350.14,466.49h-10.73c-7.21,0-13.11-5.9-13.11-13.11V177.59c0-7.21,5.9-13.11,13.11-13.11h10.73
		c7.21,0,13.11,5.9,13.11,13.11v275.79C363.26,460.59,357.35,466.49,350.14,466.49z"/>
	<path class="st5" d="M211.49,457.75h-0.38c-1.89,0-3.43-1.55-3.43-3.43V170.88c0-1.89,1.55-3.43,3.43-3.43h0.38
		c1.89,0,3.43,1.55,3.43,3.43v283.43C214.93,456.2,213.38,457.75,211.49,457.75z"/>
	<path class="st5" d="M274.81,457.75h-0.38c-1.89,0-3.43-1.55-3.43-3.43V170.88c0-1.89,1.55-3.43,3.43-3.43h0.38
		c1.89,0,3.43,1.55,3.43,3.43v283.43C278.25,456.2,276.7,457.75,274.81,457.75z"/>
	<path class="st5" d="M338.13,457.75h-0.38c-1.89,0-3.43-1.55-3.43-3.43V170.88c0-1.89,1.55-3.43,3.43-3.43h0.38
		c1.89,0,3.43,1.55,3.43,3.43v283.43C341.57,456.2,340.02,457.75,338.13,457.75z"/>
	<path class="st1" d="M381.21,110.02c-0.41,0-0.82,0.02-1.23,0.03c0.8-2.66,1.23-5.47,1.23-8.39c0-16.09-13.05-29.14-29.14-29.14
		c-8.1,0-15.43,3.31-20.72,8.65c-3.38-6.33-10.05-10.63-17.73-10.63c-9.61,0-17.64,6.75-19.62,15.77
		c-11.48-12.13-29.38-17.18-46.22-11.43c-1.01,0.35-1.99,0.74-2.96,1.15c-5.29-2.26-11.12-3.51-17.24-3.51
		c-14.64,0-27.59,7.15-35.6,18.14c-15.73,0.43-28.35,13.31-28.35,29.15c0,0.83,0.04,1.65,0.11,2.46
		c-9.17,4.15-15.56,13.38-15.56,24.1c0,14.61,11.84,26.45,26.45,26.45c4.76,0,9.22-1.26,13.07-3.46
		c3.81,13.13,15.91,22.73,30.27,22.73c10.98,0,20.65-5.62,26.3-14.14c5.73,5.5,13.5,8.89,22.07,8.89c9.99,0,18.9-4.6,24.74-11.78
		c4.6,2.79,10.01,4.4,15.79,4.4c10.83,0,20.33-5.65,25.74-14.16c0.99-0.26,1.96-0.57,2.91-0.91c2.11,5.39,7.35,9.22,13.5,9.22
		c4.71,0,8.88-2.26,11.53-5.73c5.62,4.61,12.8,7.37,20.64,7.37c18.01,0,32.61-14.6,32.61-32.61S399.22,110.02,381.21,110.02z"/>
	<g>
		<path class="st6" d="M194.36,102.4c-27.67-2.84-20.65,17.62-20.65,17.62"/>
		<path class="st6" d="M160.24,134.57c-7.28,16.09-3.07,24.89,9.76,24.51"/>
		<path class="st6" d="M244.26,161.06c25.36,15.38,44.43,0,44.43,0"/>
		<path class="st6" d="M243.66,91.58c18.47-13.81,34.62-6.54,39.08,6.19"/>
		<path class="st6" d="M300.17,92.02c3.91-11.23,16.51-16,21.79-6.13"/>
		<path class="st6" d="M208.06,145.78c1.49-18.72,18.71-28.94,36.2-17.77"/>
		<path class="st6" d="M370.59,161.41c19.66,11.5,41.41-15.34,32.33-28.69"/>
		<path class="st6" d="M317.54,127.09c5.79,16,26.72,16.85,32.34,9.19"/>
		<path class="st6" d="M341.12,85.34c10.46-1.09,21.95,0.92,26.59,13.46"/>
	</g>
</g>
</svg>
