<?xml version="1.0" encoding="utf-8"?>
<!-- Generator: Adobe Illustrator 24.1.1, SVG Export Plug-In . SVG Version: 6.00 Build 0)  -->
<svg version="1.1" xmlns="http://www.w3.org/2000/svg" xmlns:xlink="http://www.w3.org/1999/xlink" x="0px" y="0px"
	 viewBox="0 0 612 612" style="enable-background:new 0 0 612 612;" xml:space="preserve">
<style type="text/css">
	.st0{fill:#EAF4F4;}
	.st1{fill:#FFFFFF;stroke:#ACAEAF;stroke-miterlimit:10;}
	.st2{fill:#EAF4F4;stroke:#ACAEAF;stroke-miterlimit:10;}
	.st3{fill:#F8FFFF;stroke:#ACAEAF;stroke-miterlimit:10;}
	.st4{fill:#EDEDED;}
	.st5{fill:#FFFFFF;}
	.st6{fill:#EAD015;}
	.st7{fill:#EFDD73;}
	.st8{fill:#FFF7D2;}
</style>
<g id="Layer_2">
	<path class="st0" d="M554.01,567.42H54.83c-6.6,0-12-5.4-12-12V56.23c0-6.6,5.4-12,12-12h499.19c6.6,0,12,5.4,12,12v499.19
		C566.01,562.02,560.61,567.42,554.01,567.42z"/>
</g>
<g id="Beer_Mug">
	<path class="st1" d="M464.49,450.71h-79.21c-10.08,0-18.33-8.25-18.33-18.33V224.83c0-10.08,8.25-18.33,18.33-18.33h79.21
		c10.08,0,18.33,8.25,18.33,18.33v207.54C482.82,442.46,474.57,450.71,464.49,450.71z"/>
	<path class="st2" d="M383.18,409.02V248.19c0-9.65,7.83-17.48,17.48-17.48h41.27c9.65,0,17.48,7.83,17.48,17.48v160.83
		c0,9.65-7.83,17.48-17.48,17.48h-41.27C391.01,426.5,383.18,418.67,383.18,409.02z"/>
	<path class="st1" d="M202.2,537.49c-20.78,0-37.69-16.91-37.69-37.69V169c0-20.78,16.91-37.69,37.69-37.69h157.61
		c20.78,0,37.69,16.91,37.69,37.69v330.8c0,20.78-16.91,37.69-37.69,37.69H202.2z"/>
	<path class="st3" d="M360.78,492.66H201.24c-12.32,0-22.41-10.08-22.41-22.41V168.04c0-12.32,10.08-22.41,22.41-22.41h159.54
		c12.32,0,22.41,10.08,22.41,22.41v302.22C383.18,482.58,373.1,492.66,360.78,492.66z"/>
	<path class="st4" d="M223.33,466.49H212.6c-7.21,0-13.11-5.9-13.11-13.11V177.59c0-7.21,5.9-13.11,13.11-13.11h10.73
		c7.21,0,13.11,5.9,13.11,13.11v275.79C236.44,460.59,230.54,466.49,223.33,466.49z"/>
	<path class="st4" d="M286.74,466.49h-10.73c-7.21,0-13.11-5.9-13.11-13.11V177.59c0-7.21,5.9-13.11,13.11-13.11h10.73
		c7.21,0,13.11,5.9,13.11,13.11v275.79C299.85,460.59,293.95,466.49,286.74,466.49z"/>
	<path class="st4" d="M350.14,466.49h-10.73c-7.21,0-13.11-5.9-13.11-13.11V177.59c0-7.21,5.9-13.11,13.11-13.11h10.73
		c7.21,0,13.11,5.9,13.11,13.11v275.79C363.26,460.59,357.35,466.49,350.14,466.49z"/>
	<path class="st5" d="M211.49,457.75h-0.38c-1.89,0-3.43-1.55-3.43-3.43V170.88c0-1.89,1.55-3.43,3.43-3.43h0.38
		c1.89,0,3.43,1.55,3.43,3.43v283.43C214.93,456.2,213.38,457.75,211.49,457.75z"/>
	<path class="st5" d="M274.81,457.75h-0.38c-1.89,0-3.43-1.55-3.43-3.43V170.88c0-1.89,1.55-3.43,3.43-3.43h0.38
		c1.89,0,3.43,1.55,3.43,3.43v283.43C278.25,456.2,276.7,457.75,274.81,457.75z"/>
	<path class="st5" d="M338.13,457.75h-0.38c-1.89,0-3.43-1.55-3.43-3.43V170.88c0-1.89,1.55-3.43,3.43-3.43h0.38
		c1.89,0,3.43,1.55,3.43,3.43v283.43C341.57,456.2,340.02,457.75,338.13,457.75z"/>
	<path class="st6" d="M365.07,494.83H196.95c-9.96,0-18.11-8.15-18.11-18.11V268.11h204.35v208.61
		C383.18,486.68,375.03,494.83,365.07,494.83z"/>
	<path class="st7" d="M225.57,475.73h-15.21c-5.98,0-10.87-4.89-10.87-10.87V268.11h36.96v196.75
		C236.44,470.83,231.55,475.73,225.57,475.73z"/>
	<path class="st7" d="M288.98,475.73h-15.21c-5.98,0-10.87-4.89-10.87-10.87V268.11h36.96v196.75
		C299.85,470.83,294.96,475.73,288.98,475.73z"/>
	<path class="st7" d="M354.26,475.73H335.3c-4.95,0-9-4.05-9-9V268.11h36.96v198.62C363.26,471.68,359.21,475.73,354.26,475.73z"/>
	<path class="st8" d="M212.06,469.88h-1.52c-1.57,0-2.86-1.29-2.86-2.86V268.11h7.25v198.91
		C214.93,468.59,213.64,469.88,212.06,469.88z"/>
	<path class="st8" d="M275.38,469.88h-1.52c-1.57,0-2.86-1.29-2.86-2.86V268.11h7.25v198.91
		C278.25,468.59,276.96,469.88,275.38,469.88z"/>
	<path class="st8" d="M338.7,469.88h-1.52c-1.57,0-2.86-1.29-2.86-2.86V268.11h7.25v198.91
		C341.57,468.59,340.28,469.88,338.7,469.88z"/>
</g>
</svg>
