<?xml version="1.0" encoding="utf-8"?>
<!-- Generator: Adobe Illustrator 24.1.1, SVG Export Plug-In . SVG Version: 6.00 Build 0)  -->
<svg version="1.1" xmlns="http://www.w3.org/2000/svg" xmlns:xlink="http://www.w3.org/1999/xlink" x="0px" y="0px"
	 viewBox="0 0 612 612" style="enable-background:new 0 0 612 612;" xml:space="preserve">
<style type="text/css">
	.st0{fill:#EAF4F4;}
	.st1{fill:#D8DCDD;}
	.st2{fill:#C2C5C6;}
	.st3{fill:#FFFDFE;}
	.st4{fill:none;stroke:#C1C5C6;stroke-miterlimit:10;}
	.st5{fill:none;stroke:#A7A8A8;stroke-miterlimit:10;}
	.st6{fill:#E5AB68;}
	.st7{fill:#DC9853;}
	.st8{fill:#E9BC89;}
	.st9{fill:#E2B07E;}
</style>
<g id="Layer_1">
	<path class="st0" d="M554.01,567.42H54.83c-6.6,0-12-5.4-12-12V56.23c0-6.6,5.4-12,12-12h499.19c6.6,0,12,5.4,12,12v499.19
		C566.01,562.02,560.61,567.42,554.01,567.42z"/>
</g>
<g id="Layer_3">
	<rect x="161.6" y="270.09" class="st1" width="177.99" height="125.25"/>
	<rect x="339.59" y="270.09" class="st2" width="89.45" height="125.25"/>
	<path class="st3" d="M163.43,350.99h176.82c0,0,5.04,5.69,7.12,10.79c2.08,5.09,2.97,16.18,2.97,16.18L163.43,350.99z"/>
	<path class="st3" d="M161.6,302.45c0,0-4.94-0.45-8.99,0c-4.05,0.45-11.99,4.05-11.99,4.05l20.98,4.64V302.45z"/>
	<line class="st4" x1="191.71" y1="285.37" x2="247.75" y2="285.37"/>
	<line class="st4" x1="163.43" y1="327.32" x2="219.47" y2="327.32"/>
	<line class="st4" x1="300.49" y1="299.75" x2="343.82" y2="299.75"/>
	<line class="st5" x1="343.82" y1="343.2" x2="387.16" y2="343.2"/>
	<rect x="202.95" y="144.83" class="st1" width="177.99" height="125.25"/>
	<rect x="380.94" y="144.83" class="st2" width="89.45" height="125.25"/>
	<path class="st3" d="M274.34,181.44h106.74c0,0,3.04,5.69,4.3,10.79c1.25,5.09,1.79,16.18,1.79,16.18L274.34,181.44z"/>
	<path class="st3" d="M287.82,218.26h-84.64c0,0-2.41,4.18-3.41,7.92s-1.42,11.88-1.42,11.88L287.82,218.26z"/>
	<path class="st3" d="M202.95,160.31c0,0-3.16-0.45-5.74,0s-7.66,4.05-7.66,4.05l13.4,4.64V160.31z"/>
	<line class="st4" x1="233.07" y1="160.11" x2="289.1" y2="160.11"/>
	<line class="st4" x1="204.79" y1="202.07" x2="260.82" y2="202.07"/>
	<line class="st4" x1="287.6" y1="247.91" x2="385.18" y2="247.91"/>
	<line class="st5" x1="381.09" y1="231.27" x2="448.28" y2="231.27"/>
	<line class="st5" x1="381.09" y1="167.61" x2="420.7" y2="167.61"/>
	<path class="st3" d="M452.77,76.81H344.6c0,0,60.38-4.05,68.02-6.29c7.64-2.25,23.37-11.99,23.37-11.99L452.77,76.81z"/>
	<rect x="185.33" y="76.81" class="st1" width="177.99" height="68.02"/>
	<rect x="363.33" y="76.81" class="st2" width="89.45" height="68.02"/>
	<path class="st3" d="M270.21,93h-84.64c0,0-2.41,4.18-3.41,7.92s-1.42,11.88-1.42,11.88L270.21,93z"/>
	<path class="st3" d="M185.33,28.72c0,0-3.16-0.45-5.74,0c-2.58,0.45-7.66,4.05-7.66,4.05l13.4,4.64V28.72z"/>
	<line class="st4" x1="185.33" y1="136.46" x2="241.37" y2="136.46"/>
	<line class="st4" x1="269.98" y1="122.66" x2="367.56" y2="122.66"/>
	<line class="st5" x1="363.47" y1="106.02" x2="430.66" y2="106.02"/>
</g>
<g id="Layer_2">
	<rect x="138.68" y="389.65" class="st6" width="249.01" height="152.82"/>
	<rect x="387.69" y="389.65" class="st7" width="82.7" height="152.82"/>
	<polygon class="st8" points="138.96,389.65 387.69,389.65 360.25,451.68 108.78,451.68 	"/>
	<polygon class="st9" points="387.69,389.65 471.29,389.65 500.06,448.98 417.35,448.98 	"/>
</g>
</svg>
