<?xml version="1.0" encoding="utf-8"?>
<!-- Generator: Adobe Illustrator 24.1.1, SVG Export Plug-In . SVG Version: 6.00 Build 0)  -->
<svg version="1.1" xmlns="http://www.w3.org/2000/svg" xmlns:xlink="http://www.w3.org/1999/xlink" x="0px" y="0px"
	 viewBox="0 0 612 612" style="enable-background:new 0 0 612 612;" xml:space="preserve">
<style type="text/css">
	.st0{fill:#EAF4F4;}
	.st1{fill:#FFFFFF;stroke:#000000;stroke-width:4;stroke-miterlimit:10;}
	.st2{fill:#EAF4F4;stroke:#000000;stroke-width:4;stroke-miterlimit:10;}
	.st3{fill:#EAD015;stroke:#000000;stroke-width:3.1697;stroke-miterlimit:10;}
	.st4{display:none;}
	.st5{display:inline;fill:#FFFFFF;stroke:#BABABA;stroke-width:2.4391;stroke-miterlimit:10;}
	.st6{fill:none;stroke:#000000;stroke-width:3.835;stroke-miterlimit:10;}
	.st7{fill:none;stroke:#000000;stroke-width:3.791;stroke-miterlimit:10;}
	.st8{fill:none;stroke:#000000;stroke-width:0.9346;stroke-miterlimit:10;}
	.st9{fill:#EFDD73;stroke:#000000;stroke-width:3.1698;stroke-miterlimit:10;}
	.st10{fill:#EFDD73;stroke:#000000;stroke-width:3.1349;stroke-miterlimit:10;}
	.st11{fill:#EFDD73;stroke:#000000;stroke-width:3.2047;stroke-miterlimit:10;}
	.st12{fill:#FFF7D2;stroke:#000000;stroke-width:0.7851;stroke-miterlimit:10;}
	.st13{fill:#FFF7D2;stroke:#000000;stroke-width:0.7761;stroke-miterlimit:10;}
	.st14{fill:#FFF7D2;stroke:#000000;stroke-width:0.793;stroke-miterlimit:10;}
</style>
<g id="Layer_2">
	<path class="st0" d="M554.01,567.42H54.83c-6.6,0-12-5.4-12-12V56.23c0-6.6,5.4-12,12-12h499.19c6.6,0,12,5.4,12,12v499.19
		C566.01,562.02,560.61,567.42,554.01,567.42z"/>
</g>
<g id="Beer_Mug">
	<path class="st1" d="M464.49,450.71h-79.21c-10.08,0-18.33-8.25-18.33-18.33V224.83c0-10.08,8.25-18.33,18.33-18.33h79.21
		c10.08,0,18.33,8.25,18.33,18.33v207.54C482.82,442.46,474.57,450.71,464.49,450.71z"/>
	<path class="st2" d="M383.18,409.02V248.19c0-9.65,7.83-17.48,17.48-17.48h41.27c9.65,0,17.48,7.83,17.48,17.48v160.83
		c0,9.65-7.83,17.48-17.48,17.48h-41.27C391.01,426.5,383.18,418.67,383.18,409.02z"/>
	<path class="st1" d="M202.2,537.49c-20.78,0-37.69-16.91-37.69-37.69V169c0-20.78,16.91-37.69,37.69-37.69h157.61
		c20.78,0,37.69,16.91,37.69,37.69v330.8c0,20.78-16.91,37.69-37.69,37.69H202.2z"/>
	<path class="st3" d="M364.66,492.66H197.35c-10.19,0-18.52-8.33-18.52-18.52V274.11c0-10.19,18.52-18.52,18.52-18.52
		s10.14-4.04,32.54,0c22.4,4.04,53.09,7.66,82.38,0c29.29-7.66,44.54-5.01,56.68-1.28c11.41,3.51,14.23-1.26,14.23,19.8
		s0,200.03,0,200.03C383.18,484.33,374.85,492.66,364.66,492.66z"/>
	<g class="st4">
		<circle class="st5" cx="186.67" cy="259.51" r="7.83"/>
		<circle class="st5" cx="201.99" cy="254.4" r="12.94"/>
		<circle class="st5" cx="245.2" cy="257.3" r="6.3"/>
		<circle class="st5" cx="220.09" cy="254.4" r="7.4"/>
		<circle class="st5" cx="234.08" cy="248.75" r="10.76"/>
		<circle class="st5" cx="254.74" cy="253.12" r="8.15"/>
		<circle class="st5" cx="264.88" cy="251.66" r="10.15"/>
		<circle class="st5" cx="283.38" cy="254.84" r="8.75"/>
		<circle class="st5" cx="276.9" cy="246.09" r="5.38"/>
		<circle class="st5" cx="299.85" cy="254.4" r="8.29"/>
		<circle class="st5" cx="317.08" cy="248.75" r="13.29"/>
		<circle class="st5" cx="334.32" cy="254.4" r="7.25"/>
		<circle class="st5" cx="348.66" cy="251" r="9.02"/>
		<circle class="st5" cx="376.49" cy="258.37" r="6.69"/>
		<circle class="st5" cx="363.26" cy="255.6" r="8.68"/>
		<circle class="st5" cx="373.22" cy="248.75" r="5.11"/>
		<circle class="st5" cx="228.98" cy="260.7" r="5.11"/>
	</g>
	<path class="st6" d="M360.78,492.66H201.24c-12.32,0-22.41-10.08-22.41-22.41V168.04c0-12.32,10.08-22.41,22.41-22.41h159.54
		c12.32,0,22.41,10.08,22.41,22.41v302.22C383.18,482.58,373.1,492.66,360.78,492.66z"/>
	<path class="st7" d="M223.33,466.49H212.6c-7.21,0-13.11-5.9-13.11-13.11V177.59c0-7.21,5.9-13.11,13.11-13.11h10.73
		c7.21,0,13.11,5.9,13.11,13.11v275.79C236.44,460.59,230.54,466.49,223.33,466.49z"/>
	<path class="st7" d="M286.74,466.49h-10.73c-7.21,0-13.11-5.9-13.11-13.11V177.59c0-7.21,5.9-13.11,13.11-13.11h10.73
		c7.21,0,13.11,5.9,13.11,13.11v275.79C299.85,460.59,293.95,466.49,286.74,466.49z"/>
	<path class="st7" d="M350.14,466.49h-10.73c-7.21,0-13.11-5.9-13.11-13.11V177.59c0-7.21,5.9-13.11,13.11-13.11h10.73
		c7.21,0,13.11,5.9,13.11,13.11v275.79C363.26,460.59,357.35,466.49,350.14,466.49z"/>
	<path class="st8" d="M211.54,457.75h-0.47c-1.86,0-3.39-1.52-3.39-3.39V178.81c0-1.86,1.52-3.39,3.39-3.39h0.47
		c1.86,0,3.39,1.52,3.39,3.39v275.55C214.93,456.22,213.4,457.75,211.54,457.75z"/>
	<path class="st8" d="M274.86,457.75h-0.47c-1.86,0-3.39-1.52-3.39-3.39V178.81c0-1.86,1.52-3.39,3.39-3.39h0.47
		c1.86,0,3.39,1.52,3.39,3.39v275.55C278.25,456.22,276.72,457.75,274.86,457.75z"/>
	<path class="st8" d="M338.18,457.75h-0.47c-1.86,0-3.39-1.52-3.39-3.39V178.81c0-1.86,1.52-3.39,3.39-3.39h0.47
		c1.86,0,3.39,1.52,3.39,3.39v275.55C341.57,456.22,340.04,457.75,338.18,457.75z"/>
	<path class="st9" d="M225.48,466.49h-15.03c-6.03,0-10.96-4.93-10.96-10.96V266.31c0-6.03,4.93-10.96,10.96-10.96h15.03
		c6.03,0,10.96,4.93,10.96,10.96v189.22C236.44,461.56,231.51,466.49,225.48,466.49z"/>
	<path class="st10" d="M289.01,466.49h-15.27c-5.96,0-10.84-4.88-10.84-10.84V270.82c0-5.96,4.88-10.84,10.84-10.84h15.27
		c5.96,0,10.84,4.88,10.84,10.84v184.83C299.85,461.61,294.97,466.49,289.01,466.49z"/>
	<path class="st11" d="M352.17,466.49h-14.79c-6.1,0-11.09-4.99-11.09-11.09V261.76c0-6.1,4.99-11.09,11.09-11.09h14.79
		c6.1,0,11.09,4.99,11.09,11.09V455.4C363.26,461.5,358.27,466.49,352.17,466.49z"/>
	<path class="st12" d="M212.08,460.47h-1.56c-1.56,0-2.84-1.28-2.84-2.84V264.12c0-1.56,1.28-2.84,2.84-2.84h1.56
		c1.56,0,2.84,1.28,2.84,2.84v193.51C214.93,459.19,213.65,460.47,212.08,460.47z"/>
	<path class="st13" d="M275.43,460.47h-1.62c-1.55,0-2.81-1.27-2.81-2.81V268.62c0-1.55,1.27-2.81,2.81-2.81h1.62
		c1.55,0,2.81,1.27,2.81,2.81v189.04C278.25,459.21,276.98,460.47,275.43,460.47z"/>
	<path class="st14" d="M338.69,460.47h-1.5c-1.58,0-2.87-1.29-2.87-2.87V260.13c0-1.58,1.29-2.87,2.87-2.87h1.5
		c1.58,0,2.87,1.29,2.87,2.87V457.6C341.57,459.18,340.27,460.47,338.69,460.47z"/>
</g>
</svg>
