<?xml version="1.0" encoding="utf-8"?>
<!-- Generator: Adobe Illustrator 24.1.1, SVG Export Plug-In . SVG Version: 6.00 Build 0)  -->
<svg version="1.1" xmlns="http://www.w3.org/2000/svg" xmlns:xlink="http://www.w3.org/1999/xlink" x="0px" y="0px"
	 viewBox="0 0 612 612" style="enable-background:new 0 0 612 612;" xml:space="preserve">
<style type="text/css">
	.st0{fill:#EAF4F4;}
	.st1{fill:#FFFFFF;stroke:#000000;stroke-width:4;stroke-miterlimit:10;}
	.st2{fill:#EAF4F4;stroke:#000000;stroke-width:4;stroke-miterlimit:10;}
	.st3{fill:#EAD015;stroke:#000000;stroke-width:2.151;stroke-miterlimit:10;}
	.st4{display:none;}
	.st5{display:inline;fill:#FFFFFF;stroke:#BABABA;stroke-width:2.4391;stroke-miterlimit:10;}
	.st6{fill:none;stroke:#000000;stroke-width:3.835;stroke-miterlimit:10;}
	.st7{fill:none;stroke:#000000;stroke-width:3.791;stroke-miterlimit:10;}
	.st8{fill:#EFDD73;stroke:#000000;stroke-width:3.791;stroke-miterlimit:10;}
	.st9{fill:none;stroke:#000000;stroke-width:0.9346;stroke-miterlimit:10;}
	.st10{fill:#FFF7D2;stroke:#000000;stroke-width:0.4935;stroke-miterlimit:10;}
	.st11{fill:#FFF7D2;stroke:#000000;stroke-width:0.4879;stroke-miterlimit:10;}
	.st12{fill:#FFF7D2;stroke:#000000;stroke-width:0.4985;stroke-miterlimit:10;}
</style>
<g id="Layer_2">
	<path class="st0" d="M554.01,567.42H54.83c-6.6,0-12-5.4-12-12V56.23c0-6.6,5.4-12,12-12h499.19c6.6,0,12,5.4,12,12v499.19
		C566.01,562.02,560.61,567.42,554.01,567.42z"/>
</g>
<g id="Beer_Mug">
	<path class="st1" d="M464.49,450.71h-79.21c-10.08,0-18.33-8.25-18.33-18.33V224.83c0-10.08,8.25-18.33,18.33-18.33h79.21
		c10.08,0,18.33,8.25,18.33,18.33v207.54C482.82,442.46,474.57,450.71,464.49,450.71z"/>
	<path class="st2" d="M383.18,409.02V248.19c0-9.65,7.83-17.48,17.48-17.48h41.27c9.65,0,17.48,7.83,17.48,17.48v160.83
		c0,9.65-7.83,17.48-17.48,17.48h-41.27C391.01,426.5,383.18,418.67,383.18,409.02z"/>
	<path class="st1" d="M202.2,537.49c-20.78,0-37.69-16.91-37.69-37.69V169c0-20.78,16.91-37.69,37.69-37.69h157.61
		c20.78,0,37.69,16.91,37.69,37.69v330.8c0,20.78-16.91,37.69-37.69,37.69H202.2z"/>
	<path class="st3" d="M364.66,492.66H197.35c-18.52-5.06-18.52-16.89-18.52-23.96c0-7.06,0-76.69,0-76.69
		c0-4.69,18.52-8.53,18.52-8.53s10.14-1.86,32.54,0s53.09,3.53,82.38,0c29.29-3.53,44.54-2.31,56.68-0.59
		c11.41,1.62,14.23-0.58,14.23,9.12c0,6.95,0,51.2,0,75.76C383.18,477.49,374.85,492.66,364.66,492.66z"/>
	<g class="st4">
		<circle class="st5" cx="186.67" cy="259.51" r="7.83"/>
		<circle class="st5" cx="201.99" cy="254.4" r="12.94"/>
		<circle class="st5" cx="245.2" cy="257.3" r="6.3"/>
		<circle class="st5" cx="220.09" cy="254.4" r="7.4"/>
		<circle class="st5" cx="234.08" cy="248.75" r="10.76"/>
		<circle class="st5" cx="254.74" cy="253.12" r="8.15"/>
		<circle class="st5" cx="264.88" cy="251.66" r="10.15"/>
		<circle class="st5" cx="283.38" cy="254.84" r="8.75"/>
		<circle class="st5" cx="276.9" cy="246.09" r="5.38"/>
		<circle class="st5" cx="299.85" cy="254.4" r="8.29"/>
		<circle class="st5" cx="317.08" cy="248.75" r="13.29"/>
		<circle class="st5" cx="334.32" cy="254.4" r="7.25"/>
		<circle class="st5" cx="348.66" cy="251" r="9.02"/>
		<circle class="st5" cx="376.49" cy="258.37" r="6.69"/>
		<circle class="st5" cx="363.26" cy="255.6" r="8.68"/>
		<circle class="st5" cx="373.22" cy="248.75" r="5.11"/>
		<circle class="st5" cx="228.98" cy="260.7" r="5.11"/>
	</g>
	<path class="st6" d="M360.78,492.66H201.24c-12.32,0-22.41-10.08-22.41-22.41V168.04c0-12.32,10.08-22.41,22.41-22.41h159.54
		c12.32,0,22.41,10.08,22.41,22.41v302.22C383.18,482.58,373.1,492.66,360.78,492.66z"/>
	<path class="st7" d="M223.89,466.49h-11.84c-6.91,0-12.56-5.65-12.56-12.56v-276.9c0-6.91,5.65-12.56,12.56-12.56h11.84
		c6.91,0,12.56,5.65,12.56,12.56v276.9C236.44,460.84,230.79,466.49,223.89,466.49z"/>
	<path class="st7" d="M286.74,466.49h-10.73c-7.21,0-13.11-5.9-13.11-13.11V177.59c0-7.21,5.9-13.11,13.11-13.11h10.73
		c7.21,0,13.11,5.9,13.11,13.11v275.79C299.85,460.59,293.95,466.49,286.74,466.49z"/>
	<path class="st7" d="M350.14,466.49h-10.73c-7.21,0-13.11-5.9-13.11-13.11V177.59c0-7.21,5.9-13.11,13.11-13.11h10.73
		c7.21,0,13.11,5.9,13.11,13.11v275.79C363.26,460.59,357.35,466.49,350.14,466.49z"/>
	<path class="st8" d="M224.19,466.49h-12.46c-6.74,0-12.25-5.51-12.25-12.25v-58.18c0-6.74,5.51-12.25,12.25-12.25h12.46
		c6.74,0,12.25,5.51,12.25,12.25v58.18C236.44,460.98,230.93,466.49,224.19,466.49z"/>
	<path class="st8" d="M288.28,466.49h-13.81c-6.37,0-11.57-5.21-11.57-11.57v-56.15c0-6.37,5.21-11.57,11.57-11.57h13.81
		c6.37,0,11.57,5.21,11.57,11.57v56.15C299.85,461.28,294.64,466.49,288.28,466.49z"/>
	<path class="st8" d="M352.74,466.49h-15.93c-5.78,0-10.51-4.73-10.51-10.51v-64.25c0-5.78,4.73-10.51,10.51-10.51h15.93
		c5.78,0,10.51,4.73,10.51,10.51v64.25C363.26,461.76,358.53,466.49,352.74,466.49z"/>
	<path class="st9" d="M212.01,385.04h-1.41c-1.6,0-2.92-1.31-2.92-2.92V178.34c0-1.6,1.31-2.92,2.92-2.92h1.41
		c1.6,0,2.92,1.31,2.92,2.92v203.78C214.93,383.73,213.61,385.04,212.01,385.04z"/>
	<path class="st9" d="M275.31,387.19h-1.38c-1.61,0-2.93-1.32-2.93-2.93v-205.9c0-1.61,1.32-2.93,2.93-2.93h1.38
		c1.61,0,2.93,1.32,2.93,2.93v205.9C278.25,385.87,276.93,387.19,275.31,387.19z"/>
	<path class="st9" d="M338.67,381.53h-1.46c-1.59,0-2.89-1.3-2.89-2.89V178.32c0-1.59,1.3-2.89,2.89-2.89h1.46
		c1.59,0,2.89,1.3,2.89,2.89v200.32C341.57,380.23,340.26,381.53,338.67,381.53z"/>
	<path class="st10" d="M213.24,459.17h-3.88c-0.93,0-1.68-0.76-1.68-1.68v-66.34c0-0.93,0.76-1.68,1.68-1.68h3.88
		c0.93,0,1.68,0.76,1.68,1.68v66.34C214.93,458.41,214.17,459.17,213.24,459.17z"/>
	<path class="st11" d="M276.62,458.57h-3.99c-0.9,0-1.63-0.73-1.63-1.63v-62.02c0-0.9,0.73-1.63,1.63-1.63h3.99
		c0.9,0,1.63,0.73,1.63,1.63v62.02C278.25,457.84,277.51,458.57,276.62,458.57z"/>
	<path class="st12" d="M339.86,459.72h-3.84c-0.94,0-1.71-0.77-1.71-1.71v-68.21c0-0.94,0.77-1.71,1.71-1.71h3.84
		c0.94,0,1.71,0.77,1.71,1.71v68.21C341.57,458.96,340.8,459.72,339.86,459.72z"/>
</g>
</svg>
